<?xml version="1.0" ?><!DOCTYPE svg  PUBLIC '-//W3C//DTD SVG 1.1//EN'  'http://www.w3.org/Graphics/SVG/1.1/DTD/svg11.dtd'><svg enable-background="new 0 0 24 24" height="24px" id="Layer_1" version="1.1" viewBox="0 0 24 24" width="24px" xml:space="preserve" xmlns="http://www.w3.org/2000/svg" xmlns:xlink="http://www.w3.org/1999/xlink"><g><path d="M12.358,7.317c-1.899,0-3.445-1.545-3.445-3.445c0-1.899,1.545-3.445,3.445-3.445c1.9,0,3.446,1.545,3.446,3.445   C15.804,5.771,14.258,7.317,12.358,7.317z M12.358,1.355c-1.388,0-2.517,1.129-2.517,2.517s1.129,2.517,2.517,2.517   c1.388,0,2.518-1.129,2.518-2.517S13.746,1.355,12.358,1.355z"/></g><g><path d="M12.358,21.684L12.358,21.684c-0.151,0-0.293-0.072-0.38-0.198c-1.913-2.73-2.689-5.757-2.909-6.771   c-0.369-0.074-0.604-0.251-0.747-0.404c-0.413-0.446-0.38-1.039-0.375-1.104l-0.001-2.779c0-2.085,1.593-2.641,2.534-2.641l3.733,0   l0,0c0.968,0,2.56,0.557,2.56,2.641v2.812c0.004,0.031,0.036,0.624-0.377,1.07c-0.142,0.153-0.378,0.33-0.747,0.404   c-0.219,1.014-0.996,4.04-2.909,6.771C12.651,21.611,12.509,21.684,12.358,21.684z M10.503,8.716c-0.405,0-1.63,0.125-1.63,1.712   v2.812c-0.004,0.103,0.012,0.316,0.133,0.442c0.089,0.095,0.241,0.142,0.451,0.142c0.226,0,0.418,0.162,0.457,0.385   c0.006,0.034,0.58,3.222,2.444,6.173c1.869-2.957,2.439-6.139,2.445-6.173c0.038-0.223,0.231-0.385,0.457-0.385   c0.21,0,0.362-0.047,0.451-0.142c0.119-0.126,0.137-0.34,0.133-0.411l-0.001-2.843c0-1.589-1.229-1.713-1.605-1.713l-3.732,0   C10.504,8.716,10.503,8.716,10.503,8.716z"/></g><g><path d="M12.358,23.604c-2.983,0-8.624-0.504-8.624-2.411c0-0.877,1.167-1.544,3.47-1.98c0.254-0.046,0.496,0.117,0.542,0.369   c0.048,0.251-0.118,0.494-0.37,0.543c-2.243,0.424-2.715,0.978-2.715,1.068c0,0.444,2.618,1.482,7.696,1.482   s7.696-1.038,7.696-1.482c0-0.091-0.473-0.645-2.715-1.068c-0.252-0.049-0.416-0.292-0.37-0.543   c0.05-0.252,0.291-0.415,0.544-0.369c2.302,0.437,3.47,1.104,3.47,1.98C20.982,23.1,15.341,23.604,12.358,23.604z"/></g></svg>