<?xml version="1.0" ?><!DOCTYPE svg  PUBLIC '-//W3C//DTD SVG 1.1//EN'  'http://www.w3.org/Graphics/SVG/1.1/DTD/svg11.dtd'><svg enable-background="new 0 0 800 800" height="800px" id="Layer_1" version="1.1" viewBox="0 0 800 800" width="800px" xml:space="preserve" xmlns="http://www.w3.org/2000/svg" xmlns:xlink="http://www.w3.org/1999/xlink"><path d="M400.004,34.58c-201.499,0-365.422,163.927-365.422,365.418c0,190.72,146.915,347.707,333.491,363.94  c3.635,0.361,7.444,0.654,11.407,0.861c1.138,0.069,2.275,0.129,3.429,0.181c3.464,0.146,7.066,0.232,10.788,0.276  c2.102,0.034,4.188,0.163,6.307,0.163c8.771,0,17.439-0.431,26.057-1.033c23.383-1.447,43.976-5.457,48.766-6.703  c165.725-34.62,290.592-181.837,290.592-357.686C765.418,198.507,601.486,34.58,400.004,34.58z M236.744,599.023l-28.485,16.888  l-15.63,9.272l-4.308-4.12l8.461-15.889l15.509-29.121l116.905-219.568l31.467,30.063l-19.077,19.989  c-11.288,11.806-14.285,27.572-8.047,42.203c6.652,15.525,22.006,25.951,38.238,25.951c10.443,0,20.42-4.445,28.106-12.493  l19.076-19.973l31.484,30.036L236.744,599.023z M364.316,428.233l29.916-31.347c0.086-0.086,0.138-0.189,0.224-0.275  c0.069-0.068,0.155-0.12,0.207-0.189l35.465-37.119c2.637-2.774,4.705-2.774,5.377-2.774c3.531,0,7.719,3.102,9.355,6.893  c1.275,2.999,0.725,5.428-1.877,8.151l-35.447,37.136c-0.087,0.077-0.139,0.172-0.207,0.258c-0.086,0.087-0.172,0.121-0.242,0.207  l-29.915,31.329c-2.654,2.774-4.704,2.774-5.395,2.774c-3.532,0-7.719-3.102-9.34-6.893  C361.145,433.386,361.713,430.955,364.316,428.233z M441.104,419.049l24.607-25.779c11.271-11.822,14.287-27.59,8.031-42.204  c-6.635-15.526-22.006-25.952-38.238-25.952c-10.428,0-20.404,4.429-28.107,12.485l-24.608,25.771l-31.466-30.053L570.156,203.5  l28.314-16.793l10.666-6.324l4.309,4.127l-5.877,11.021l-15.543,29.191L472.57,449.085L441.104,419.049z M476.137,74.309  c53.248,12.446,101.602,37.679,141.736,72.205c-4.582-2.085-10.012-1.905-14.527,0.775l-30.518,18.111l-5.91,3.498  c-31.656-22.918-68.207-39.367-107.721-47.759L476.137,74.309z M400.038,65.899c17.13,0,33.448,1.539,45.218,3.02l-17.129,47.329  l-10.857,29.998l-16.336,45.167l-17.628-45.201l-11.718-30.072l-17.628-45.212C366.401,67.619,382.031,65.899,400.038,65.899z   M387.097,240.912c2.31,5.933,8.013,9.831,14.372,9.831c0.069,0,0.139,0,0.189,0c6.445-0.077,12.15-4.14,14.338-10.188  l32.604-90.112c32.26,6.28,62.363,18.576,89.059,35.817L317.495,316.843c-1.361,0.81-2.48,1.844-3.516,2.964  c-0.62,0.62-1.154,1.292-1.671,2.016l0,0c-0.379,0.534-0.792,1.034-1.103,1.62L192.353,546.637  c-20.679-29.208-35.257-62.967-42.167-99.431h41.048c8.53,0,15.44-6.91,15.44-15.439v-61.762c0-8.521-6.911-15.44-15.44-15.44  h-41.565c18.645-102.968,99.5-184.53,202.085-204.312L387.097,240.912z M156.664,416.325v-30.88h19.128v30.88H156.664z   M65.462,399.998c0-157.707,109.728-290.182,256.823-325.328l18.078,46.369c-128.761,27.502-225.642,142.111-225.642,278.958  c0,66.715,23.092,128.098,61.606,176.728l-1.895,3.566l-19.438,36.534c-1.481,2.756-1.912,5.807-1.654,8.771  C98.825,566.093,65.462,486.893,65.462,399.998z M322.786,725.441c-49.165-11.666-94.141-34.259-132.276-64.967  c2.722-0.017,5.445-0.724,7.91-2.188l36.256-21.507l3.516-2.085c30.485,21.075,65.276,36.273,102.723,44.218L322.786,725.441z   M427.541,733.316c-9.322,0.638-19.559,1.12-30.001,1.12c-0.897,0-1.707-0.018-2.585-0.034c-3.946-0.052-7.91-0.104-11.822-0.293  c-0.345-0.018-0.655-0.043-0.982-0.061c-3.809-0.198-7.583-0.542-11.356-0.87c-6.875-0.716-12.425-1.672-16.819-2.723l18.198-46.683  l11.666-29.95l17.094-43.848l15.855,43.804l10.891,30.132l17.197,47.526C439.139,732.213,433.365,732.835,427.541,733.316z   M415.996,560.837c-2.188-6.049-7.893-10.115-14.338-10.184c-6.272-0.183-12.234,3.824-14.562,9.822l-34.809,89.28  c-30.416-5.815-58.953-16.974-84.525-32.603l216.527-128.435c1.344-0.793,2.48-1.826,3.496-2.946  c1.086-1.085,2.068-2.258,2.793-3.636l119.748-224.914c19.594,28.791,33.379,61.8,39.842,97.342h-38.67  c-8.531,0-15.439,6.919-15.439,15.44v61.762c0,8.529,6.908,15.439,15.439,15.439h38.48  c-19.266,102.154-99.775,182.913-201.811,202.55L415.996,560.837z M646.066,385.445v30.88h-19.129v-30.88H646.066z M475.672,725.804  l-16.871-46.649c129.191-27.175,226.486-142.013,226.486-279.156c0-65.079-22.006-125.052-58.814-173.104l3.24-6.083l17.061-32.062  c2.342-4.407,2.309-9.512,0.326-13.863c54.248,59.46,87.438,138.458,87.438,225.111  C734.537,558.424,623.801,691.391,475.672,725.804z" fill="#4D4D4D"/></svg>